<svg width="900" height="600" viewBox="0 0 900 600" fill="none" xmlns="http://www.w3.org/2000/svg">
<g clip-path="url(#clip0_85_380)">
<path d="M900 270.4C861 270.1 822 269.8 796.5 249.8C771 229.9 759.1 190.3 736 164C712.8 137.8 678.5 125 658.9 99.9C639.3 74.8 634.4 37.4 629.6 0H900V270.4Z" fill="#6A327E"/>
<path d="M0 329.6C37.5 331.5 75 333.5 103.5 350.2C131.9 366.9 151.3 398.4 176.1 423.9C200.8 449.5 231 469.1 247.6 497.4C264.2 525.8 267.3 562.9 270.4 600H0V329.6Z" fill="#FBAE3C"/>
</g>
<defs>
<clipPath id="clip0_85_380">
<rect width="900" height="600" fill="white"/>
</clipPath>
</defs>
</svg>
