<svg width="50" height="40" viewBox="0 0 50 40" fill="none" xmlns="http://www.w3.org/2000/svg">
<path d="M0 20C0 10.5719 0 5.85786 2.92893 2.92893C5.85786 0 10.5719 0 20 0C29.4281 0 46.071 0 49 2.92893C51.9289 5.85786 40 10.5719 40 20C40 29.4281 40 34.1421 37.0711 37.0711C34.1421 40 29.4281 40 20 40C10.5719 40 5.85786 40 2.92893 37.0711C0 34.1421 0 29.4281 0 20Z" fill="#F4A024"/>
<path d="M23.9997 26C24.552 26 25.0098 26.4521 24.9001 26.9934C24.7062 27.9494 24.2352 28.8355 23.5352 29.5355C22.5976 30.4732 21.3258 31 19.9997 31C18.6736 31 17.4019 30.4732 16.4642 29.5355C15.7642 28.8355 15.2932 27.9494 15.0994 26.9934C14.9896 26.4521 15.4474 26 15.9997 26H23.9997Z" fill="#6A327E"/>
<path d="M26.1027 17.7765C25.5692 17.9194 25.2425 18.4775 25.513 18.959C25.7977 19.4658 26.1915 19.9081 26.6706 20.2514C27.4228 20.7904 28.3386 21.052 29.2621 20.9914C30.1855 20.9309 31.0594 20.5521 31.7348 19.9195C32.4103 19.2869 32.8454 18.4396 32.9662 17.5221C33.087 16.6046 32.886 15.6736 32.3973 14.8877C31.9086 14.1019 31.1625 13.5098 30.2862 13.2123C29.4099 12.9148 28.4576 12.9304 27.5915 13.2564C27.0399 13.464 26.5451 13.7893 26.1389 14.2051C25.753 14.6002 25.9241 15.2239 26.4024 15.5L26.9097 15.7929C27.6812 16.2384 27.5291 17.3943 26.6685 17.6249L26.1027 17.7765Z" fill="#6A327E"/>
<path d="M13.8977 17.7765C14.4312 17.9194 14.7579 18.4775 14.4874 18.959C14.2027 19.4658 13.8089 19.9081 13.3299 20.2514C12.5777 20.7904 11.6618 21.052 10.7384 20.9914C9.81496 20.9309 8.94107 20.5521 8.26564 19.9195C7.59021 19.2869 7.15502 18.4396 7.03423 17.5221C6.91344 16.6046 7.11451 15.6736 7.6032 14.8877C8.09188 14.1019 8.83794 13.5098 9.71425 13.2123C10.5905 12.9148 11.5429 12.9304 12.409 13.2564C12.9605 13.464 13.4554 13.7893 13.8616 14.2051C14.2475 14.6002 14.0763 15.2239 13.598 15.5L13.0907 15.7929C12.3192 16.2384 12.4714 17.3943 13.3319 17.6249L13.8977 17.7765Z" fill="#6A327E"/>
</svg>
