<svg width="112" height="19" viewBox="0 0 112 19" fill="none" xmlns="http://www.w3.org/2000/svg">
<path d="M0.462891 18.712V0.832031H7.13489C8.35089 0.832031 9.42289 1.05603 10.3509 1.50403C11.2949 1.93603 12.0309 2.57603 12.5589 3.42403C13.0869 4.25603 13.3509 5.27203 13.3509 6.47203C13.3509 7.65603 13.0789 8.67203 12.5349 9.52003C12.0069 10.352 11.2789 10.992 10.3509 11.44C9.42289 11.888 8.35089 12.112 7.13489 12.112H3.72689V18.712H0.462891ZM3.72689 9.23203H7.18289C7.77489 9.23203 8.28689 9.12003 8.71889 8.89603C9.15089 8.65603 9.48689 8.32803 9.72689 7.91203C9.96689 7.49603 10.0869 7.01603 10.0869 6.47203C10.0869 5.91203 9.96689 5.43203 9.72689 5.03203C9.48689 4.61603 9.15089 4.29603 8.71889 4.07203C8.28689 3.83203 7.77489 3.71203 7.18289 3.71203H3.72689V9.23203Z" fill="#6A327E"/>
<path d="M21.4846 19.0002C20.1406 19.0002 18.9646 18.6962 17.9566 18.0882C16.9486 17.4802 16.1646 16.6562 15.6046 15.6162C15.0446 14.5762 14.7646 13.4242 14.7646 12.1602C14.7646 10.8482 15.0446 9.68816 15.6046 8.68016C16.1806 7.65616 16.9566 6.84816 17.9326 6.25616C18.9246 5.66416 20.0286 5.36816 21.2446 5.36816C22.2686 5.36816 23.1647 5.53616 23.9327 5.87216C24.7167 6.20816 25.3806 6.67216 25.9246 7.26416C26.4686 7.85616 26.8846 8.53616 27.1726 9.30416C27.4606 10.0562 27.6046 10.8722 27.6046 11.7522C27.6046 11.9762 27.5887 12.2082 27.5567 12.4482C27.5407 12.6882 27.5006 12.8962 27.4366 13.0722H17.3567V10.6722H25.6606L24.1726 11.8002C24.3166 11.0642 24.2766 10.4082 24.0526 9.83216C23.8446 9.25616 23.4926 8.80016 22.9966 8.46416C22.5166 8.12816 21.9326 7.96016 21.2446 7.96016C20.5886 7.96016 20.0046 8.12816 19.4926 8.46416C18.9806 8.78416 18.5887 9.26416 18.3167 9.90416C18.0607 10.5282 17.9646 11.2882 18.0286 12.1842C17.9646 12.9842 18.0686 13.6962 18.3406 14.3202C18.6286 14.9282 19.0446 15.4002 19.5886 15.7362C20.1486 16.0722 20.7886 16.2402 21.5086 16.2402C22.2286 16.2402 22.8367 16.0882 23.3327 15.7842C23.8447 15.4802 24.2447 15.0722 24.5326 14.5602L27.0766 15.8082C26.8206 16.4322 26.4207 16.9842 25.8767 17.4642C25.3327 17.9442 24.6847 18.3202 23.9327 18.5922C23.1967 18.8642 22.3806 19.0002 21.4846 19.0002Z" fill="#6A327E"/>
<path d="M35.9398 18.8557C34.4678 18.8557 33.3238 18.4557 32.5078 17.6557C31.7078 16.8397 31.3078 15.6957 31.3078 14.2237V8.46369H29.0518V5.65569H29.2918C29.9318 5.65569 30.4278 5.48769 30.7798 5.15169C31.1318 4.81569 31.3078 4.32769 31.3078 3.68769V2.67969H34.4518V5.65569H37.4518V8.46369H34.4518V14.0557C34.4518 14.4877 34.5238 14.8557 34.6678 15.1597C34.8278 15.4637 35.0678 15.6957 35.3878 15.8557C35.7238 16.0157 36.1478 16.0957 36.6598 16.0957C36.7718 16.0957 36.8998 16.0877 37.0438 16.0717C37.2038 16.0557 37.3558 16.0397 37.4998 16.0237V18.7117C37.2758 18.7437 37.0198 18.7757 36.7318 18.8077C36.4438 18.8397 36.1798 18.8557 35.9398 18.8557Z" fill="#6A327E"/>
<path d="M40.166 18.712V0.832031H43.286L49.982 9.92803H48.494L55.046 0.832031H58.166V18.712H54.878V4.55203L56.15 4.86403L49.358 13.912H48.974L42.35 4.86403L43.43 4.55203V18.712H40.166Z" fill="#6A327E"/>
<path d="M67.5159 19.0002C66.1719 19.0002 64.9959 18.6962 63.9879 18.0882C62.9799 17.4802 62.1959 16.6562 61.6359 15.6162C61.0759 14.5762 60.7959 13.4242 60.7959 12.1602C60.7959 10.8482 61.0759 9.68816 61.6359 8.68016C62.2119 7.65616 62.9879 6.84816 63.9639 6.25616C64.9559 5.66416 66.0599 5.36816 67.2759 5.36816C68.2999 5.36816 69.1959 5.53616 69.9639 5.87216C70.7479 6.20816 71.4119 6.67216 71.9559 7.26416C72.4999 7.85616 72.9159 8.53616 73.2039 9.30416C73.4919 10.0562 73.6359 10.8722 73.6359 11.7522C73.6359 11.9762 73.6199 12.2082 73.5879 12.4482C73.5719 12.6882 73.5319 12.8962 73.4679 13.0722H63.3879V10.6722H71.6919L70.2039 11.8002C70.3479 11.0642 70.3079 10.4082 70.0839 9.83216C69.8759 9.25616 69.5239 8.80016 69.0279 8.46416C68.5479 8.12816 67.9639 7.96016 67.2759 7.96016C66.6199 7.96016 66.0359 8.12816 65.5239 8.46416C65.0119 8.78416 64.6199 9.26416 64.3479 9.90416C64.0919 10.5282 63.9959 11.2882 64.0599 12.1842C63.9959 12.9842 64.0999 13.6962 64.3719 14.3202C64.6599 14.9282 65.0759 15.4002 65.6199 15.7362C66.1799 16.0722 66.8199 16.2402 67.5399 16.2402C68.2599 16.2402 68.8679 16.0882 69.3639 15.7842C69.8759 15.4802 70.2759 15.0722 70.5639 14.5602L73.1079 15.8082C72.8519 16.4322 72.4519 16.9842 71.9079 17.4642C71.3639 17.9442 70.7159 18.3202 69.9639 18.5922C69.2279 18.8642 68.4119 19.0002 67.5159 19.0002Z" fill="#6A327E"/>
<path d="M76.0186 18.7122V5.65616H78.9706V8.68016L78.6346 8.17616C78.8746 7.23216 79.3546 6.52816 80.0746 6.06416C80.7946 5.60016 81.6426 5.36816 82.6186 5.36816C83.6906 5.36816 84.6346 5.64816 85.4506 6.20816C86.2666 6.76816 86.7946 7.50416 87.0346 8.41616L86.1466 8.48816C86.5466 7.44816 87.1466 6.67216 87.9466 6.16016C88.7466 5.63216 89.6666 5.36816 90.7066 5.36816C91.6346 5.36816 92.4586 5.57616 93.1786 5.99216C93.9146 6.40816 94.4906 6.99216 94.9066 7.74416C95.3226 8.48016 95.5306 9.33616 95.5306 10.3122V18.7122H92.3866V11.0562C92.3866 10.4802 92.2826 9.98416 92.0746 9.56816C91.8666 9.15216 91.5786 8.83216 91.2106 8.60816C90.8426 8.36816 90.3946 8.24816 89.8666 8.24816C89.3706 8.24816 88.9306 8.36816 88.5466 8.60816C88.1626 8.83216 87.8666 9.15216 87.6586 9.56816C87.4506 9.98416 87.3466 10.4802 87.3466 11.0562V18.7122H84.2026V11.0562C84.2026 10.4802 84.0986 9.98416 83.8906 9.56816C83.6826 9.15216 83.3866 8.83216 83.0026 8.60816C82.6346 8.36816 82.1946 8.24816 81.6826 8.24816C81.1866 8.24816 80.7466 8.36816 80.3626 8.60816C79.9786 8.83216 79.6826 9.15216 79.4746 9.56816C79.2666 9.98416 79.1626 10.4802 79.1626 11.0562V18.7122H76.0186Z" fill="#6A327E"/>
<path d="M104.575 19.0002C103.295 19.0002 102.127 18.7042 101.071 18.1122C100.031 17.5202 99.1991 16.7122 98.5751 15.6882C97.9671 14.6642 97.6631 13.4962 97.6631 12.1842C97.6631 10.8722 97.9671 9.70416 98.5751 8.68016C99.1991 7.65616 100.031 6.84816 101.071 6.25616C102.111 5.66416 103.279 5.36816 104.575 5.36816C105.855 5.36816 107.015 5.66416 108.055 6.25616C109.095 6.84816 109.919 7.65616 110.527 8.68016C111.151 9.68816 111.463 10.8562 111.463 12.1842C111.463 13.4962 111.151 14.6642 110.527 15.6882C109.903 16.7122 109.071 17.5202 108.031 18.1122C106.991 18.7042 105.839 19.0002 104.575 19.0002ZM104.575 16.1202C105.279 16.1202 105.895 15.9522 106.423 15.6162C106.967 15.2802 107.391 14.8162 107.695 14.2242C108.015 13.6162 108.175 12.9362 108.175 12.1842C108.175 11.4162 108.015 10.7442 107.695 10.1682C107.391 9.57616 106.967 9.11216 106.423 8.77616C105.895 8.42416 105.279 8.24816 104.575 8.24816C103.855 8.24816 103.223 8.42416 102.679 8.77616C102.135 9.11216 101.703 9.57616 101.383 10.1682C101.079 10.7442 100.927 11.4162 100.927 12.1842C100.927 12.9362 101.079 13.6162 101.383 14.2242C101.703 14.8162 102.135 15.2802 102.679 15.6162C103.223 15.9522 103.855 16.1202 104.575 16.1202Z" fill="#6A327E"/>
</svg>
