<svg width="155" height="40" viewBox="0 0 155 40" fill="none" xmlns="http://www.w3.org/2000/svg">
<g clip-path="url(#clip0_1003_154)">
<path d="M51.5821 10.2842H48V26.4475H57.9164V23.2804H51.5821V10.2842Z" fill="#243A5A"/>
<path d="M58.2588 20.9646C58.2588 24.4157 60.5741 26.7091 64.0688 26.7091C67.5417 26.7091 69.857 24.4157 69.857 20.9646C69.857 17.5135 67.5417 15.1982 64.0688 15.1982C60.5741 15.1982 58.2588 17.5135 58.2588 20.9646ZM61.6443 20.9427C61.6443 19.3046 62.6054 18.2125 64.0688 18.2125C65.5104 18.2125 66.4715 19.3046 66.4715 20.9427C66.4715 22.6028 65.5104 23.6949 64.0688 23.6949C62.6054 23.6949 61.6443 22.6028 61.6443 20.9427Z" fill="#243A5A"/>
<path d="M70.3982 20.7906C70.3982 24.0887 72.5388 26.3166 75.5748 26.3166C77.0383 26.3166 78.3051 25.7924 78.9385 24.9406V26.4477C78.9385 27.9548 77.9993 28.9595 76.3393 28.9595C74.854 28.9595 73.8274 28.2606 73.7619 27.0156H70.3545C70.6603 30.008 72.9756 32.0174 76.1427 32.0174C79.8777 32.0174 82.2367 29.593 82.2367 25.7487V15.5266H79.2006L79.0259 16.6405C78.4143 15.745 77.1256 15.1553 75.6404 15.1553C72.5824 15.1553 70.3982 17.4487 70.3982 20.7906ZM73.8056 20.7032C73.8056 19.1305 74.854 18.0821 76.1864 18.0821C77.7372 18.0821 78.873 19.1087 78.873 20.7032C78.873 22.2977 77.759 23.3898 76.2082 23.3898C74.8759 23.3898 73.8056 22.2977 73.8056 20.7032Z" fill="#243A5A"/>
<path d="M83.2168 20.9646C83.2168 24.4157 85.5321 26.7091 89.0269 26.7091C92.4998 26.7091 94.815 24.4157 94.815 20.9646C94.815 17.5135 92.4998 15.1982 89.0269 15.1982C85.5321 15.1982 83.2168 17.5135 83.2168 20.9646ZM86.6024 20.9427C86.6024 19.3046 87.5634 18.2125 89.0269 18.2125C90.4684 18.2125 91.4295 19.3046 91.4295 20.9427C91.4295 22.6028 90.4684 23.6949 89.0269 23.6949C87.5634 23.6949 86.6024 22.6028 86.6024 20.9427Z" fill="#243A5A"/>
<path d="M97.7151 13.8224C98.7635 13.8224 99.6154 12.9705 99.6154 11.9003C99.6154 10.83 98.7635 10 97.7151 10C96.6448 10 95.793 10.83 95.793 11.9003C95.793 12.9705 96.6448 13.8224 97.7151 13.8224ZM96.0114 26.4472H99.397V15.5261H96.0114V26.4472Z" fill="#243A5A"/>
<path d="M101.368 31.6895H104.688V25.3553C105.321 26.1853 106.763 26.7532 108.27 26.7532C111.524 26.7532 113.49 24.2632 113.403 20.8121C113.315 17.2955 111.284 15.1768 108.248 15.1768C106.697 15.1768 105.234 15.8539 104.622 16.8587L104.447 15.5263H101.368V31.6895ZM104.753 20.9868C104.753 19.3487 105.845 18.2566 107.418 18.2566C109.012 18.2566 110.017 19.3705 110.017 20.9868C110.017 22.6032 109.012 23.7171 107.418 23.7171C105.845 23.7171 104.753 22.625 104.753 20.9868Z" fill="#243A5A"/>
<path d="M113.761 22.9963C113.848 25.2024 115.596 26.7313 118.348 26.7313C120.991 26.7313 122.826 25.3334 122.826 23.0837C122.826 21.4674 121.865 20.3971 120.073 19.9602L118.13 19.4797C117.431 19.305 116.994 19.1302 116.994 18.5623C116.994 17.9944 117.452 17.6231 118.13 17.6231C118.894 17.6231 119.396 18.1255 119.375 18.8681H122.411C122.323 16.5965 120.598 15.1768 118.195 15.1768C115.771 15.1768 113.958 16.6184 113.958 18.8026C113.958 20.266 114.766 21.4674 116.928 22.0353L118.85 22.5376C119.418 22.6905 119.658 22.9526 119.658 23.3239C119.658 23.87 119.156 24.2195 118.304 24.2195C117.321 24.2195 116.797 23.7608 116.797 22.9963H113.761Z" fill="#243A5A"/>
<path d="M127.974 26.7314C129.307 26.7314 130.639 26.1198 131.316 25.2243L131.535 26.4475H134.702V15.5264H131.338V21.2054C131.338 22.8435 130.858 23.739 129.307 23.739C128.105 23.739 127.319 23.193 127.319 21.1617V15.5264H123.955V22.3848C123.955 24.9841 125.397 26.7314 127.974 26.7314Z" fill="#243A5A"/>
<path d="M140.036 26.4477V20.4848C140.036 18.65 141.019 18.1258 141.98 18.1258C143.05 18.1258 143.749 18.7811 143.749 20.1353V26.4477H147.069V20.4848C147.069 18.6282 148.03 18.104 148.991 18.104C150.061 18.104 150.782 18.7592 150.782 20.1353V26.4477H154.059V19.3053C154.059 16.8153 152.748 15.1553 149.93 15.1553C148.358 15.1553 147.069 15.9197 146.501 17.0992C145.846 15.9197 144.71 15.1553 142.897 15.1553C141.696 15.1553 140.582 15.7013 139.927 16.575L139.796 15.5266H136.65V26.4477H140.036Z" fill="#243A5A"/>
<path d="M0 20C0 10.5719 0 5.85786 2.92893 2.92893C5.85786 0 10.5719 0 20 0C29.4281 0 34.1421 0 37.0711 2.92893C40 5.85786 40 10.5719 40 20C40 29.4281 40 34.1421 37.0711 37.0711C34.1421 40 29.4281 40 20 40C10.5719 40 5.85786 40 2.92893 37.0711C0 34.1421 0 29.4281 0 20Z" fill="#F4A024"/>
<path d="M23.9997 26C24.552 26 25.0098 26.4521 24.9001 26.9934C24.7062 27.9494 24.2352 28.8355 23.5352 29.5355C22.5976 30.4732 21.3258 31 19.9997 31C18.6736 31 17.4019 30.4732 16.4642 29.5355C15.7642 28.8355 15.2932 27.9494 15.0994 26.9934C14.9896 26.4521 15.4474 26 15.9997 26H23.9997Z" fill="#6A327E"/>
<path d="M26.1027 17.7765C25.5692 17.9194 25.2425 18.4775 25.513 18.959C25.7977 19.4658 26.1915 19.9081 26.6706 20.2514C27.4228 20.7904 28.3386 21.052 29.2621 20.9914C30.1855 20.9309 31.0594 20.5521 31.7348 19.9195C32.4103 19.2869 32.8454 18.4396 32.9662 17.5221C33.087 16.6046 32.886 15.6736 32.3973 14.8877C31.9086 14.1019 31.1625 13.5098 30.2862 13.2123C29.4099 12.9148 28.4576 12.9304 27.5915 13.2564C27.0399 13.464 26.5451 13.7893 26.1389 14.2051C25.753 14.6002 25.9241 15.2239 26.4024 15.5L26.9097 15.7929C27.6812 16.2384 27.5291 17.3943 26.6685 17.6249L26.1027 17.7765Z" fill="#6A327E"/>
<path d="M13.8977 17.7765C14.4312 17.9194 14.7579 18.4775 14.4874 18.959C14.2027 19.4658 13.8089 19.9081 13.3299 20.2514C12.5777 20.7904 11.6618 21.052 10.7384 20.9914C9.81496 20.9309 8.94107 20.5521 8.26564 19.9195C7.59021 19.2869 7.15502 18.4396 7.03423 17.5221C6.91344 16.6046 7.11451 15.6736 7.6032 14.8877C8.09188 14.1019 8.83794 13.5098 9.71425 13.2123C10.5905 12.9148 11.5429 12.9304 12.409 13.2564C12.9605 13.464 13.4554 13.7893 13.8616 14.2051C14.2475 14.6002 14.0763 15.2239 13.598 15.5L13.0907 15.7929C12.3192 16.2384 12.4714 17.3943 13.3319 17.6249L13.8977 17.7765Z" fill="#6A327E"/>
</g>
<defs>
<clipPath id="clip0_1003_154">
<rect width="155" height="40" fill="white"/>
</clipPath>
</defs>
</svg>
