<svg width="157" height="40" viewBox="0 0 157 40" fill="none" xmlns="http://www.w3.org/2000/svg">
<g clip-path="url(#clip0_1003_154)">
<path d="M0 20C0 10.5719 0 5.85786 2.92893 2.92893C5.85786 0 10.5719 0 20 0C29.4281 0 46.071 0 49 2.92893C51.9289 5.85786 40 10.5719 40 20C40 29.4281 40 34.1421 37.0711 37.0711C34.1421 40 29.4281 40 20 40C10.5719 40 5.85786 40 2.92893 37.0711C0 34.1421 0 29.4281 0 20Z" fill="#F4A024"/>
<path d="M23.9997 26C24.552 26 25.0098 26.4521 24.9001 26.9934C24.7062 27.9494 24.2352 28.8355 23.5352 29.5355C22.5976 30.4732 21.3258 31 19.9997 31C18.6736 31 17.4019 30.4732 16.4642 29.5355C15.7642 28.8355 15.2932 27.9494 15.0994 26.9934C14.9896 26.4521 15.4474 26 15.9997 26H23.9997Z" fill="#6A327E"/>
<path d="M26.1027 17.7765C25.5692 17.9194 25.2425 18.4775 25.513 18.959C25.7977 19.4658 26.1915 19.9081 26.6706 20.2514C27.4228 20.7904 28.3386 21.052 29.2621 20.9914C30.1855 20.9309 31.0594 20.5521 31.7348 19.9195C32.4103 19.2869 32.8454 18.4396 32.9662 17.5221C33.087 16.6046 32.886 15.6736 32.3973 14.8877C31.9086 14.1019 31.1625 13.5098 30.2862 13.2123C29.4099 12.9148 28.4576 12.9304 27.5915 13.2564C27.0399 13.464 26.5451 13.7893 26.1389 14.2051C25.753 14.6002 25.9241 15.2239 26.4024 15.5L26.9097 15.7929C27.6812 16.2384 27.5291 17.3943 26.6685 17.6249L26.1027 17.7765Z" fill="#6A327E"/>
<path d="M13.8977 17.7765C14.4312 17.9194 14.7579 18.4775 14.4874 18.959C14.2027 19.4658 13.8089 19.9081 13.3299 20.2514C12.5777 20.7904 11.6618 21.052 10.7384 20.9914C9.81496 20.9309 8.94107 20.5521 8.26564 19.9195C7.59021 19.2869 7.15502 18.4396 7.03423 17.5221C6.91344 16.6046 7.11451 15.6736 7.6032 14.8877C8.09188 14.1019 8.83794 13.5098 9.71425 13.2123C10.5905 12.9148 11.5429 12.9304 12.409 13.2564C12.9605 13.464 13.4554 13.7893 13.8616 14.2051C14.2475 14.6002 14.0763 15.2239 13.598 15.5L13.0907 15.7929C12.3192 16.2384 12.4714 17.3943 13.3319 17.6249L13.8977 17.7765Z" fill="#6A327E"/>
<path d="M45.4629 35.712V17.832H52.1349C53.3509 17.832 54.4229 18.056 55.3509 18.504C56.2949 18.936 57.0309 19.576 57.5589 20.424C58.0869 21.256 58.3509 22.272 58.3509 23.472C58.3509 24.656 58.0789 25.672 57.5349 26.52C57.0069 27.352 56.2789 27.992 55.3509 28.44C54.4229 28.888 53.3509 29.112 52.1349 29.112H48.7269V35.712H45.4629ZM48.7269 26.232H52.1829C52.7749 26.232 53.2869 26.12 53.7189 25.896C54.1509 25.656 54.4869 25.328 54.7269 24.912C54.9669 24.496 55.0869 24.016 55.0869 23.472C55.0869 22.912 54.9669 22.432 54.7269 22.032C54.4869 21.616 54.1509 21.296 53.7189 21.072C53.2869 20.832 52.7749 20.712 52.1829 20.712H48.7269V26.232Z" fill="#6A327E"/>
<path d="M66.4846 36C65.1406 36 63.9646 35.696 62.9566 35.088C61.9486 34.48 61.1646 33.656 60.6046 32.616C60.0446 31.576 59.7646 30.424 59.7646 29.16C59.7646 27.848 60.0446 26.688 60.6046 25.68C61.1806 24.656 61.9566 23.848 62.9326 23.256C63.9246 22.664 65.0286 22.368 66.2446 22.368C67.2686 22.368 68.1646 22.536 68.9326 22.872C69.7166 23.208 70.3806 23.672 70.9246 24.264C71.4686 24.856 71.8846 25.536 72.1726 26.304C72.4606 27.056 72.6046 27.872 72.6046 28.752C72.6046 28.976 72.5886 29.208 72.5566 29.448C72.5406 29.688 72.5006 29.896 72.4366 30.072H62.3566V27.672H70.6606L69.1726 28.8C69.3166 28.064 69.2766 27.408 69.0526 26.832C68.8446 26.256 68.4926 25.8 67.9966 25.464C67.5166 25.128 66.9326 24.96 66.2446 24.96C65.5886 24.96 65.0046 25.128 64.4926 25.464C63.9806 25.784 63.5886 26.264 63.3166 26.904C63.0606 27.528 62.9646 28.288 63.0286 29.184C62.9646 29.984 63.0686 30.696 63.3406 31.32C63.6286 31.928 64.0446 32.4 64.5886 32.736C65.1486 33.072 65.7886 33.24 66.5086 33.24C67.2286 33.24 67.8366 33.088 68.3326 32.784C68.8446 32.48 69.2446 32.072 69.5326 31.56L72.0766 32.808C71.8206 33.432 71.4206 33.984 70.8766 34.464C70.3326 34.944 69.6846 35.32 68.9326 35.592C68.1966 35.864 67.3806 36 66.4846 36Z" fill="#6A327E"/>
<path d="M80.94 35.856C79.468 35.856 78.324 35.456 77.508 34.656C76.708 33.84 76.308 32.696 76.308 31.224V25.464H74.052V22.656H74.292C74.932 22.656 75.428 22.488 75.78 22.152C76.132 21.816 76.308 21.328 76.308 20.688V19.68H79.452V22.656H82.452V25.464H79.452V31.056C79.452 31.488 79.524 31.856 79.668 32.16C79.828 32.464 80.068 32.696 80.388 32.856C80.724 33.016 81.148 33.096 81.66 33.096C81.772 33.096 81.9 33.088 82.044 33.072C82.204 33.056 82.356 33.04 82.5 33.024V35.712C82.276 35.744 82.02 35.776 81.732 35.808C81.444 35.84 81.18 35.856 80.94 35.856Z" fill="#6A327E"/>
<path d="M85.166 35.712V17.832H88.286L94.982 26.928H93.494L100.046 17.832H103.166V35.712H99.878V21.552L101.15 21.864L94.358 30.912H93.974L87.35 21.864L88.43 21.552V35.712H85.166Z" fill="#6A327E"/>
<path d="M112.516 36C111.172 36 109.996 35.696 108.988 35.088C107.98 34.48 107.196 33.656 106.636 32.616C106.076 31.576 105.796 30.424 105.796 29.16C105.796 27.848 106.076 26.688 106.636 25.68C107.212 24.656 107.988 23.848 108.964 23.256C109.956 22.664 111.06 22.368 112.276 22.368C113.3 22.368 114.196 22.536 114.964 22.872C115.748 23.208 116.412 23.672 116.956 24.264C117.5 24.856 117.916 25.536 118.204 26.304C118.492 27.056 118.636 27.872 118.636 28.752C118.636 28.976 118.62 29.208 118.588 29.448C118.572 29.688 118.532 29.896 118.468 30.072H108.388V27.672H116.692L115.204 28.8C115.348 28.064 115.308 27.408 115.084 26.832C114.876 26.256 114.524 25.8 114.028 25.464C113.548 25.128 112.964 24.96 112.276 24.96C111.62 24.96 111.036 25.128 110.524 25.464C110.012 25.784 109.62 26.264 109.348 26.904C109.092 27.528 108.996 28.288 109.06 29.184C108.996 29.984 109.1 30.696 109.372 31.32C109.66 31.928 110.076 32.4 110.62 32.736C111.18 33.072 111.82 33.24 112.54 33.24C113.26 33.24 113.868 33.088 114.364 32.784C114.876 32.48 115.276 32.072 115.564 31.56L118.108 32.808C117.852 33.432 117.452 33.984 116.908 34.464C116.364 34.944 115.716 35.32 114.964 35.592C114.228 35.864 113.412 36 112.516 36Z" fill="#6A327E"/>
<path d="M121.019 35.712V22.656H123.971V25.68L123.635 25.176C123.875 24.232 124.355 23.528 125.075 23.064C125.795 22.6 126.643 22.368 127.619 22.368C128.691 22.368 129.635 22.648 130.451 23.208C131.267 23.768 131.795 24.504 132.035 25.416L131.147 25.488C131.547 24.448 132.147 23.672 132.947 23.16C133.747 22.632 134.667 22.368 135.707 22.368C136.635 22.368 137.459 22.576 138.179 22.992C138.915 23.408 139.491 23.992 139.907 24.744C140.323 25.48 140.531 26.336 140.531 27.312V35.712H137.387V28.056C137.387 27.48 137.283 26.984 137.075 26.568C136.867 26.152 136.579 25.832 136.211 25.608C135.843 25.368 135.395 25.248 134.867 25.248C134.371 25.248 133.931 25.368 133.547 25.608C133.163 25.832 132.867 26.152 132.659 26.568C132.451 26.984 132.347 27.48 132.347 28.056V35.712H129.203V28.056C129.203 27.48 129.099 26.984 128.891 26.568C128.683 26.152 128.387 25.832 128.003 25.608C127.635 25.368 127.195 25.248 126.683 25.248C126.187 25.248 125.747 25.368 125.363 25.608C124.979 25.832 124.683 26.152 124.475 26.568C124.267 26.984 124.163 27.48 124.163 28.056V35.712H121.019Z" fill="#6A327E"/>
<path d="M149.575 36C148.295 36 147.127 35.704 146.071 35.112C145.031 34.52 144.199 33.712 143.575 32.688C142.967 31.664 142.663 30.496 142.663 29.184C142.663 27.872 142.967 26.704 143.575 25.68C144.199 24.656 145.031 23.848 146.071 23.256C147.111 22.664 148.279 22.368 149.575 22.368C150.855 22.368 152.015 22.664 153.055 23.256C154.095 23.848 154.919 24.656 155.527 25.68C156.151 26.688 156.463 27.856 156.463 29.184C156.463 30.496 156.151 31.664 155.527 32.688C154.903 33.712 154.071 34.52 153.031 35.112C151.991 35.704 150.839 36 149.575 36ZM149.575 33.12C150.279 33.12 150.895 32.952 151.423 32.616C151.967 32.28 152.391 31.816 152.695 31.224C153.015 30.616 153.175 29.936 153.175 29.184C153.175 28.416 153.015 27.744 152.695 27.168C152.391 26.576 151.967 26.112 151.423 25.776C150.895 25.424 150.279 25.248 149.575 25.248C148.855 25.248 148.223 25.424 147.679 25.776C147.135 26.112 146.703 26.576 146.383 27.168C146.079 27.744 145.927 28.416 145.927 29.184C145.927 29.936 146.079 30.616 146.383 31.224C146.703 31.816 147.135 32.28 147.679 32.616C148.223 32.952 148.855 33.12 149.575 33.12Z" fill="#6A327E"/>
</g>
<defs>
<clipPath id="clip0_1003_154">
<rect width="156.463" height="40" fill="white"/>
</clipPath>
</defs>
</svg>
