<svg width="683" height="512" viewBox="0 0 683 512" fill="none" xmlns="http://www.w3.org/2000/svg">
<path fill-rule="evenodd" clip-rule="evenodd" d="M588.691 456.782C592.109 458.541 595.304 458.539 598.666 459.908C602.003 461.267 602.873 466.899 605.726 467.572C592.499 468.963 579.471 471.912 566.083 470.445C567.242 465.722 565.16 460.887 567.949 456.455C575.405 449.401 580.252 452.44 588.691 456.782ZM532.835 132.109C533.007 135.43 533.253 136.75 535.61 138.893C537.457 140.571 538.497 138.069 538.672 141.347C538.773 143.239 536.808 144.187 536.047 145.717C532.255 153.333 534.873 163.169 536.736 170.756C540.515 186.139 549.744 202.865 543.241 218.501C542.585 220.078 542.059 223.496 540.792 224.703C539.122 223.821 537.903 224.207 537.133 225.86L535.749 227.415C532.827 230.118 529.716 231.122 525.837 229.686C518.015 226.791 516.722 217.706 516.681 210.555C516.635 202.673 518.314 194.419 520.109 186.74C520.973 183.043 522.304 178.751 519.827 175.263C517.487 171.968 514.596 173.825 512.292 172.355C509.839 170.789 513.372 159.285 510.955 156.234C506.736 150.907 505.266 163.938 505.199 166.599C505.125 169.515 505.283 172.916 506.657 175.559C507.737 177.635 511.25 179.457 511.853 181.552C512.417 183.511 509.944 188.599 509.562 190.701C508.974 193.94 508.769 197.248 508.601 200.531C508.031 211.621 509.771 223.291 517.404 231.897C520.751 235.67 526.423 239.956 531.73 239.269C536.414 238.662 541.121 236.133 545.49 234.414C548.428 245.701 552.841 256.631 557.543 267.29C561.63 276.555 565.472 286.045 569.765 295.197C578.813 314.487 593.5 330.919 604.975 348.755C616.054 365.975 622.267 385.735 623.757 406.063C624.109 410.87 622.705 417.448 623.825 421.943C624.875 426.156 625.796 427.987 625.109 432.582C624.345 437.689 622.865 442.398 623.501 447.594C624.065 452.204 626.261 459.073 623.861 463.343C620.976 460.27 618.098 458.823 616.349 454.723C614.572 450.563 615.271 447.145 611.245 445.317C607.805 443.755 605.337 444.095 602.302 441.539C598.615 438.432 596.102 434.637 594.285 430.19C591.185 422.602 590.736 414.376 593.357 406.583C595.459 400.335 601.599 388.639 610.206 392.826C608.927 390.199 608.077 387.345 605.637 385.639C603.513 384.153 600.337 383.669 597.965 381.979C595.313 380.091 592.311 378.075 589.351 376.693C588.202 376.157 587.115 375.888 585.927 375.521C584.503 375.081 581.803 375.397 581.627 375.371C576.543 374.602 570.873 372.155 567.769 368.467C565.432 365.691 563.367 363.099 561.583 359.923C559.267 355.8 558.375 356.049 553.932 355.069C547.475 353.648 543.377 352.678 538.212 347.887C532.483 342.574 528.291 335.953 524.099 329.433C521.643 325.613 519.485 325.38 515.482 323.855C513.155 322.968 509.932 318.999 507.813 318.705C507.202 318.619 504.273 319.953 503.282 320.111C501.511 320.398 499.974 320.347 498.2 320.161C494.129 319.734 490.531 318.656 487.795 315.471C479.366 305.662 476.796 282.54 488.336 274.195C490.535 272.606 493.597 271.874 494.895 269.233C496.383 266.203 495.705 260.495 495.586 257.3C495.451 253.655 495.279 249.687 494.735 246.093C494.484 244.441 494.297 243.746 493.623 242.092C492.286 238.812 491.894 239.289 489.14 238.501C485.211 237.377 483.435 237.819 481.026 234.089C479.105 231.115 478.206 227.367 478.031 223.849C477.869 220.569 479.349 217.536 478.113 214.564C476.303 210.215 472.949 206.923 471.477 202.163C470.237 198.154 467.036 189.207 470.192 185.508C471.606 183.851 474.117 183.608 475.519 181.39C477.962 177.528 478.949 175.416 482.574 172.372C485.249 170.125 487.817 166.779 491.041 165.405C494.212 164.055 497.205 166.229 499.779 165.633C502.585 164.983 501.847 158.475 502.625 155.545C503.675 151.593 505.927 147.474 508.654 144.391C509.565 143.361 510.7 143.163 511.409 141.793C512.37 139.939 511.989 137.297 512.737 135.27C513.631 132.847 515.801 128.677 518.227 127.349C525.315 123.469 527.443 133.467 532.835 132.109ZM516.249 419.024C517.249 421.718 516.696 426.048 517.847 428.367C518.764 430.215 522.445 431.387 524.249 433.59C528.113 438.308 529.585 445.886 528.183 451.711C523.454 450.544 520.292 449.797 515.484 450.413C514.999 439.855 515.453 429.579 516.249 419.024ZM457.806 426.981C461.023 430.569 462.619 434.797 462.155 439.593C461.988 441.301 461.467 443.694 460.964 445.334C460.411 447.134 457.664 450.504 458.731 451.469C455.729 451.289 452.203 451.638 450.04 449.697C448.099 447.955 446.74 443.465 445.953 441.086L450.499 432.013C451.486 433.578 454.384 437.666 456.777 436.358C458.579 435.373 457.123 428.972 457.806 426.981ZM570.727 399.016C574.409 402.437 575.667 408.606 575.48 413.394C575.54 419.993 573.256 433.203 564.677 433.645C557.782 434.001 550.428 424.127 549.653 418.023C548.803 411.333 551.016 395.332 559.787 393.956C563.017 393.449 568.4 396.853 570.727 399.016ZM509.099 407.549C509.246 411.875 509.318 416.037 508.975 420.348C508.689 423.953 509.643 428.209 508.837 431.661C503.735 425.955 497.017 419.74 497.221 411.352C497.412 403.423 503.981 404.097 509.099 407.549L509.099 407.549ZM457.691 312.212L461.961 316.892C462.083 323.467 461.953 329.969 463.955 336.309C466.061 342.98 469.591 349.409 473.086 355.441C479.879 367.165 481.499 378.223 482.318 391.631C469.542 385.907 462.575 366.349 458.359 354.114C456.127 347.637 453.813 341.155 451.707 334.637C449.631 328.21 445.962 319.812 448.377 313.041C453.019 316.453 455.026 318.212 457.691 312.212ZM537.304 358.362C543.542 363.323 544.014 370.915 546.253 377.853C544.962 378.885 543.544 379.793 542.377 380.969C541.657 381.695 539.959 384.669 539.406 384.974C537.196 386.196 535.265 384.627 533.106 382.657C528.855 378.775 526.202 370.537 526.401 364.839C526.634 358.184 531.339 353.617 537.304 358.362ZM624.589 329.209C632.697 333.853 630.582 346.705 629.571 353.955C628.936 358.499 630.343 363.122 630.244 367.444C630.135 372.323 627.604 371.312 625.984 374.34C624.579 370.667 622 366.247 621.413 362.396L620.481 359.96C621.271 359.643 621.69 359.093 621.739 358.308C622.07 356.442 622.065 354.539 622.169 352.637C622.599 344.774 623.193 336.962 624.589 329.208V329.209ZM501.046 337.887C500.149 341.309 499.491 347.749 494.449 345.764C490.471 344.197 489.509 337.874 489.501 334.349C489.495 331.456 489.971 326.14 494.018 325.967C498.986 325.753 500.76 334.545 501.046 337.887ZM462.666 242.618C459.311 247.99 456.983 255.925 458.568 262.286C460.231 268.965 465.405 270.582 470.008 265.667C473.805 271.647 466.019 282.295 459.058 276.61C457.553 275.382 456.543 273.03 454.683 272.265C453.157 271.637 451.806 272.49 450.249 272.136C445.458 271.047 443.649 266.342 441.767 262.393C442.283 259.173 442.831 255.982 443.527 252.795C443.898 251.1 444.284 249.408 444.659 247.714C445.297 244.836 445.099 245.195 447.186 243.769C452.689 240.009 456.474 239.822 462.666 242.618ZM465.507 245.518L469.532 254.469C467.339 253.941 464.949 260.523 463.517 261.805C462.847 256.328 464.451 250.844 465.507 245.517V245.518ZM463.276 214.941C466.916 216.475 467.64 223.121 467.769 226.335C466.768 229.719 465.833 234.048 461.603 231.665C458.781 230.074 457.57 224.834 457.475 221.972C457.353 218.384 458.701 213.013 463.276 214.941Z" fill="#F4A024"/>
<path fill-rule="evenodd" clip-rule="evenodd" d="M436.01 137.203C434.511 137.876 437.372 142.914 437.816 143.838C438.979 146.25 440.396 151.234 443.147 149.862L436.01 137.203ZM83.9871 429.433C81.9818 428.544 79.2998 436.193 78.9424 437.748C77.9458 442.078 78.7797 444.986 82.2457 447.786C80.8111 441.598 82.5298 435.435 83.9871 429.433ZM546.896 101.842C544.402 98.6043 540.799 92.5937 535.76 95.775C533.77 97.033 532.239 101.063 531.012 103.032C529.084 106.122 527.218 109.098 525.752 112.425C528.244 111.401 529.712 109.174 531.94 107.957C533.462 107.126 534.85 107.046 536.316 106.44C539.558 105.101 543.997 103.788 546.896 101.842ZM140.284 420.808C141.634 426.09 142.882 431.355 143.926 436.705C144.632 440.325 147.004 445.438 145.766 448.981L155.388 447.688C153.008 442.273 151.757 436.494 151.05 430.646C150.617 427.066 151.172 426.045 148.475 424.052C146.386 422.51 142.708 421.769 140.284 420.808ZM122.544 218.661C128.711 224.834 134.104 231.87 140.658 237.621C144.063 240.61 147.554 243.514 151.048 246.397C154.012 248.841 158.724 254.229 162.581 254.977C163.058 253.008 164.185 249.782 163.883 247.763C165.008 246.599 164.659 245.749 162.835 245.212C161.719 244.354 160.615 243.481 159.523 242.594C155.236 239.016 151.18 235.129 147.118 231.302C143.08 227.498 139.344 223.518 135.839 219.22C133.992 216.956 132.912 214.686 129.884 214.022C126.286 213.232 125.089 216.037 122.544 218.661ZM245.79 447.853C245.617 451.206 253.866 453.262 256.372 453.464C263.146 454.007 267.545 451.036 269.877 445.177C274.73 432.984 282.501 422.24 285.75 409.417C286.715 405.613 287.55 403.882 284.114 401.943C282.704 401.148 279.033 399.375 277.5 400.387C276.04 401.35 274.846 405.685 273.907 407.26C272.418 409.763 270.724 412.143 269.106 414.564C261.54 425.891 253.915 436.922 245.791 447.853M147.897 279.92L179.566 298.028C180.886 293.468 181.494 288.715 182.732 284.12C183.614 280.854 185.881 276.24 185.738 273.374C185.524 269.093 182.208 263.41 180.763 259.33L175.359 244.074C172.919 246.406 170.111 248.036 170.081 251.075C170.064 252.812 171.222 253.896 170.551 255.864C170.08 257.244 168.076 259.078 167.108 260.104C164.28 263.104 164.369 263.254 161.398 260.449L147.897 279.92ZM182.738 364.824C183.192 360.462 183.774 356.279 184.755 351.998C185.358 349.368 187.906 343.968 187.068 341.49C186.452 339.67 182.791 338.086 181.365 337.096C177.24 334.229 173.211 331.214 169.127 328.289C165.546 325.725 161.911 323.222 158.397 320.565C155.142 318.105 152.686 315.045 148.747 313.99C145.3 313.067 140.928 313.67 137.359 313.55C132.569 313.392 127.705 313.339 122.919 313.573C106.86 314.359 88.8697 313.236 73.4191 317.715C66.1177 319.832 61.4104 321.078 57.3284 327.994C52.6077 335.994 48.5744 344.306 45.1404 352.946C44.6391 354.208 43.5057 356.028 43.5471 357.406C43.6317 360.04 44.5738 359.433 47.0984 360.934C49.8264 362.556 52.5004 364.481 55.1064 366.308C59.5751 369.44 65.1231 372.71 69.7591 375.153C75.3371 378.092 80.9564 380.726 86.6304 383.686C90.2258 385.562 93.9471 387.095 97.4738 389.156C101.302 391.394 105.589 392.031 109.716 393.778C122.496 399.19 134.865 404.19 147.406 410.364C159.648 416.389 172.03 421.481 184.554 426.796C200.741 433.665 216.769 440.018 233.651 444.768C234.887 445.116 237.486 446.343 238.706 446.287C241.316 446.167 241.908 444.26 243.476 442.11C246.557 437.886 249.525 433.582 252.472 429.264C258.865 419.898 265.116 410.428 271.999 401.41C252.496 395.968 234.412 385.927 217.267 375.622C216.537 377.674 215.956 382.218 213.616 382.904C210.722 383.754 208.62 379.744 207.324 377.902C206.096 380.958 203.996 391.266 200.068 391.04C194.641 390.728 195.599 382.186 194.923 378.796C191.931 382.773 188.463 387.346 184.398 381.23C181.58 376.991 181.892 369.551 182.738 364.824M408.711 316.11C406.196 315.323 403.698 314.625 401.238 313.744C400.591 312.372 399.517 311.956 398.016 312.496C396.802 312.608 395.577 312.452 394.429 312.039C389.291 311.161 383.6 310.021 378.69 308.539C374.318 307.22 370.196 306.055 365.754 305.064C363.116 304.476 351.366 301.15 349.63 303.108C349.096 303.71 350.014 311.007 349.885 312.308C349.655 314.62 349.541 318.428 348.076 320.353C347.514 321.092 345.374 321.91 344.601 322.486C342.088 324.354 339.766 326.676 337.267 328.614C331.81 332.844 326.494 337.233 320.926 341.324C316.99 344.216 312.486 345.647 308.114 347.748C311.224 348.304 317.31 345.311 320.45 344.383C324.516 343.18 328.506 341.843 332.664 340.742C341.191 338.484 349.927 335.936 358.593 333.532C363.915 332.056 369.537 330.518 374.696 328.563C376.985 327.696 378.782 325.68 380.294 327.732C381.5 329.37 380.04 331.525 379.113 332.738C373.703 339.818 359.011 341.542 351.148 344.478C342.273 347.793 333.516 351.284 324.378 353.612C313.706 356.331 302.122 358.412 292.178 363.188C283.927 367.149 274.58 368.684 265.808 371.01C257.57 373.193 247.801 373.63 240.015 377.336C243.378 379.993 248.354 381.378 252.274 383.164C257.073 385.35 261.921 387.344 266.668 389.661C268.688 390.647 270.801 392.112 272.846 392.932C275.44 393.972 275.108 393.424 277.788 393.212C281.959 392.884 287.587 392.134 290.976 395.172C295.062 398.835 292.473 402.848 293.073 407.33C293.485 410.403 293.694 409.91 297.106 410.38C300.246 410.811 303.384 411.314 306.482 411.986C310.307 412.815 314.222 414.206 317.947 415.404C323.724 417.264 324.352 419.451 330.373 417.051C347.522 410.217 365.258 404.599 382.516 398.131C390.466 395.153 398.449 389.407 405.932 385.09C415.532 379.552 424.212 373.56 430.712 364.339C433.674 360.136 436.764 353.037 436.141 347.819C435.584 343.152 432.132 337.966 429.907 333.954C427.065 328.831 424.563 326.843 420.215 323.44C417.192 321.074 412.522 316.078 408.711 316.11ZM217.729 355.762C217.995 358.338 216.489 368.956 217.981 370.589C220.531 373.382 226.786 370.122 229.206 369.291C237.067 366.588 246.204 367.18 254.21 365.04C261.976 362.964 269.572 360.273 277.381 358.159C281.57 357.024 285.546 355.245 289.667 353.894C294.254 352.389 299.375 351.564 303.629 349.3C303.102 347.992 284.696 351.14 282.604 351.31C275.337 351.9 268.497 350.78 261.336 349.463C245.54 346.558 230.656 339.668 215.064 335.199C215.795 342.39 236.031 343.822 233.62 352.166C232.947 354.492 223.895 358.294 220.9 356.835C214.818 353.868 222.259 349.695 225.291 348.654C220.676 346.008 216.259 343.138 212.046 339.877C207.536 336.386 205.596 331.489 203.178 326.436C198.125 315.87 186.168 309.724 176.88 303.147C166.837 296.035 156.143 289.989 146.106 282.893C144.314 281.626 143.478 282.208 142.848 279.895C142.175 277.418 144.648 274.271 145.85 272.382C149.006 267.415 152.682 262.715 156.851 258.558C151.474 254.898 145.666 251.878 140.624 247.736C135.514 243.537 131.284 238.412 126.776 233.605C119.573 249.278 109.478 263.814 101.551 279.184C98.4198 285.254 96.7644 294.436 101.526 300.319C106.538 306.51 115.882 304.1 122.956 304.428C130.422 304.775 137.233 305.621 144.596 307.738C147.928 308.697 150.961 308.414 154.163 309.952C157.918 311.756 161.612 314.074 165.184 316.212C172.21 320.418 178.774 325.682 185.409 330.481C188.13 332.449 202.887 344.116 191.215 342.314C191.215 353.233 189.302 364.414 188.298 375.28C191.066 371.974 193.04 368.615 194.715 364.644C195.711 362.281 195.724 356.252 199.043 357.681C204.036 359.83 200.147 375.626 200.147 379.898C201.384 377.508 202.251 374.933 203.142 372.4C203.816 370.48 204.66 365.038 206.068 363.751C210.781 359.443 211.441 371.192 211.441 373.644C212.968 369.313 213.249 364.69 213.402 360.114C213.462 358.308 213.016 355.499 213.472 353.752C214.231 350.841 214.141 351.031 217.19 349.8L217.729 355.762ZM363.333 447.9C363.706 451.594 365.136 454.268 362.708 457.591C367.402 457.255 372.024 456.842 376.727 456.962C380.502 457.058 386.149 457.921 389.672 456.304C391.107 455.645 391.595 456.779 392.333 455.52C393.033 454.324 391.388 450.355 391.19 449.37C390.24 444.645 389.778 439.797 388.915 435.043C388.323 431.775 386.583 425.348 388.77 422.26C391.988 417.716 393.404 424.117 394.242 426.959C397.002 436.322 396.844 445.215 396.844 454.836C401.002 454.836 406.464 453.02 410.474 451.924C416.006 450.413 421.912 448.86 427.272 446.886C432.326 445.026 436.778 442.31 439.974 437.94C442.364 434.67 447.664 426.604 446.347 422.99C444.734 418.558 437.036 415.51 432.926 415.023C427.592 414.39 422.126 415.462 416.669 415.912C410.827 416.394 405.159 417.694 399.379 418.32C393.766 418.927 386.232 420.8 380.778 419.397C380.636 421.64 382.512 424.656 383.165 426.94C384.018 429.936 384.791 432.954 385.482 435.991C386.227 439.24 390.836 450.922 386.644 453.257C381.724 455.998 379.375 444.26 378.762 441.398C377.301 434.576 376.045 427.758 377.575 420.9C371.294 419.768 363.72 421.45 357.242 421.896C359.655 430.396 361.212 439.298 363.333 447.9ZM92.8164 451.596C95.0004 452.567 98.0018 452.046 100.376 452.232C104.086 452.524 107.834 453.194 111.568 453.075C117.267 452.894 123.241 452.173 128.944 451.521C125.691 445.654 123.717 440.098 123.311 433.374C123.164 430.958 121.883 415.977 126.34 416.618C128.491 416.927 128.034 429.719 128.452 432.076C129.058 435.494 129.841 438.994 130.794 442.341C131.485 444.768 133.837 448.404 133.234 451.029L141.862 449.631C139.626 445.173 137.992 441.178 137.155 436.204C136.75 433.804 137.008 430.818 136.224 428.539C135.729 427.102 134.601 425.751 134.45 424.546C134.276 423.156 135.799 419.741 135.236 418.506C134.682 417.292 130.829 416.17 129.48 415.5C125.759 413.657 123.578 413.19 119.408 414.25C111.365 416.294 98.6924 417.745 92.6937 423.258C86.7511 428.72 84.5884 447.144 92.8164 451.596ZM444.095 185.335C446.322 185.084 448.526 184.928 450.764 184.813C447.494 180.212 444.524 175.402 441.812 170.452C440.487 168.025 439.225 165.564 438.028 163.072C436.648 160.214 436.686 158.348 433.69 157.78C429.542 156.993 423.993 158.564 419.725 158.386C416.428 158.247 409.024 155.144 406.368 156.269C408.79 161.233 406.846 168.956 406.94 174.3C407.035 179.613 406.375 184.75 405.44 189.99C411.098 189.99 418.18 188.037 423.891 187.164C430.54 186.148 437.32 186.096 444.095 185.335ZM354.277 458.125C356.456 457.845 358.528 457.758 360.728 457.758C355.772 449.724 352.028 440.738 351.987 431.163C351.982 429.911 353.487 422.714 352.99 422.116C352.018 420.95 347.989 421.87 346.885 421.98C342.371 422.432 337.353 422.398 333.103 424.024C330.17 425.146 330.138 424.468 328.972 427.92C328.282 429.961 327.786 432.292 327.772 434.439C327.745 438.777 329.128 443.847 330.916 447.752C332.619 451.47 335.309 455.458 339.009 457.454C343.272 459.756 349.278 458.386 354.277 458.125ZM399.344 159.605C398.487 156.404 398.857 157.127 396.008 156.73C395.408 156.646 388.88 156.782 388.504 157.164C388.073 157.606 388.238 164.124 388.181 164.87C387.988 167.426 387.701 169.976 387.423 172.525C386.293 182.872 384.148 192.888 382.54 203.149C386.514 200.684 392.256 204.045 395.65 201.376C398.332 199.268 397.93 192.52 398.13 189.542C398.799 179.577 399.028 169.587 399.344 159.606M542.807 147.523L541.735 149.245C543.122 150.134 551.244 141.087 553.05 139.468C555.455 137.313 559.262 134.435 560.346 131.284C561.606 127.622 560.366 121.84 560.062 118.054C559.844 115.344 560.307 111.596 558.098 109.702C556.064 107.96 551.055 108.007 548.647 108.38C541.42 109.498 537.074 115.441 533.426 121.104C537.13 120.648 550.188 114.687 551.705 117.91C553.908 122.595 540.194 126.783 538.838 130.893C541.645 131.884 547.838 128.039 546.096 134.437C545.81 135.316 545.268 136.09 544.541 136.661C543.259 137.114 542.956 137.97 543.63 139.228C543.056 141.734 543.174 144.904 542.807 147.523ZM625.984 374.34C626.023 375.859 626.162 377.311 627.404 378.384C630.157 369.664 631.017 360.942 632.157 351.874C633.299 342.805 634.514 333.51 634.694 324.449C634.897 314.294 633.938 303.246 632.294 293.213C631.01 285.369 630.016 275.717 625.339 269.041C627.995 286.341 627.169 302.744 625.378 320.106C624.428 329.324 623.085 338.472 622.47 347.73C622.308 350.176 622.255 352.65 622.043 355.09C621.918 356.529 620.494 359.254 620.481 359.96C620.411 363.879 624.607 370.741 625.984 374.34M484.68 360.866C486.888 365.948 489.4 370.954 490.724 376.358C492.122 382.065 491.52 387.38 491.744 393.162C492.116 402.756 491.346 412.294 491.481 421.902C491.596 430.09 491.281 438.074 491.364 446.176C491.416 451.302 491.135 456.408 491.152 461.53C491.152 461.515 491.356 466.128 491.004 466.362C489.422 467.413 487.693 465.921 487.208 464.484L482.519 469.79C484.977 469.172 487.999 467.882 490.526 467.768C491.494 467.412 492.457 467.402 493.417 467.738C494.37 468.314 495.076 469.117 495.535 470.148C502.155 471.558 506.128 465.665 507.318 460.396C509.898 448.965 508.968 437.679 508.781 426.138C508.376 401.066 512.359 376.144 511.982 351.07C511.909 346.218 511.724 341.423 512.454 336.58C513.807 327.584 515.806 335.819 516.126 340.065C517.09 352.824 518.769 365.989 517.846 378.826C517.015 390.393 517.092 402.068 516.516 413.67C515.902 426.001 514.916 438.071 515.484 450.412C518.796 449.989 529.447 449.358 530.556 454.01C531.523 458.067 527.631 456.566 525.609 456.394C522.33 456.116 519.128 456.886 515.544 456.243C515.808 461.7 516.56 469.019 511.684 472.703C509.285 474.516 505.312 476.152 502.51 477.221C499.763 478.269 495.111 480.59 492.25 480.463C490.225 480.373 489.445 479.283 487.223 479.456C483.928 479.716 481.074 481.921 477.58 480.1C470.954 476.646 474.211 466.6 478.395 462.573C479.474 461.535 480.686 460.4 482.134 459.893C482.822 459.653 485.7 459.944 486.033 459.583C487.258 458.253 485.728 450.473 485.565 448.996C484.705 441.251 483.77 433.341 483.417 425.561C483.086 418.246 482.717 410.917 482.465 403.6C482.41 402.006 483.117 398.73 482.45 397.338C481.34 395.023 476.47 393.55 474.356 392.471C476.24 410.913 479.006 430.734 472.191 448.3C470.838 451.788 469.32 456.766 465.888 458.706C462.654 460.536 455.038 460.278 451.164 460.495C446.997 460.728 442.918 459.755 440.622 455.843C438.816 452.764 439.899 449.071 443.608 447.728C445.828 446.925 446.261 447.442 448.206 448.397C448.626 449.078 448.927 449.825 449.096 450.607H450.591C452.618 451.511 460.718 452.522 462.944 451.08C465.526 449.41 466.088 444.893 467.188 442.21C469.232 437.223 469.774 433.178 470.515 427.848C471.677 419.507 470.501 409.835 470.523 401.144C470.529 398.697 470.54 396.249 470.543 393.802C470.548 390.105 470.87 390.128 468.76 387.466C465.582 383.456 461.958 379.357 458.555 375.512C460.398 386.745 459.644 398.572 458.912 409.762C458.501 416.049 457.65 422.452 457.26 428.656C457.143 430.52 458.482 435.66 456.318 436.484C454.121 437.32 451.387 433.42 450.5 432.012C445.657 441.676 439.877 450.996 429.886 455.996C424.748 458.566 419.399 459.726 413.792 460.734C408.598 461.668 403.798 463.372 398.678 464.176C388.079 465.84 378.317 466.075 367.651 465.712C357.59 465.369 347.955 467.227 337.924 464.888C334.01 463.974 330.055 462.298 327.379 459.301C325.919 457.666 325.272 455.092 323.8 453.585C323.468 451.634 322.32 451.033 320.357 451.78C319.124 451.835 317.895 451.794 316.67 451.657C306.61 451.129 295.43 451.717 285.683 448.844C281.983 447.754 277.852 445.957 279.698 441.326C281.312 437.279 285.764 438.508 289.414 438.862C300.019 439.888 310.458 441.763 321.214 442.706C320.869 437.086 321.167 431.352 323.37 426.093C315.908 425.157 308.17 423.744 301.07 421.362C298.878 420.624 296.694 419.862 294.52 419.074C290.934 417.778 291.68 417.442 289.603 419.705C286.994 422.548 285.396 428.478 283.506 431.914C281.378 435.779 279.337 439.6 277.544 443.635C275.848 447.454 274.582 452.568 271.997 455.859C266.31 463.098 253.176 463.725 245.447 460.882C241.66 459.488 240.294 459.27 238 455.876C235.486 452.159 234.861 451.942 230.23 451.436C221.866 450.526 213.973 448.426 206.138 445.528C197.861 442.466 189.362 440.078 181.108 436.772C173.382 433.677 165.915 430.564 157.921 428.148C156.972 434.177 160.903 440.976 160.903 447.192C165.554 446.727 169.892 446.319 174.502 445.579C176.146 445.315 186.504 442.991 187.515 444.362C191.728 450.08 172.56 452.769 169.564 453.524C159.963 455.947 150.173 458.198 140.512 460.071C130.65 461.982 121.037 463.886 111.026 464.229C94.0864 464.809 70.7224 463.831 71.5311 441.576C71.8484 432.855 75.4411 423.391 82.3158 417.704C86.5931 414.165 91.9271 412.22 97.1558 410.618C99.0884 410.026 109.266 408.644 109.576 407.882C106.708 405.827 101.806 405.291 98.4024 403.707C95.1591 402.196 91.7357 401.634 88.4151 400.111C81.7797 397.069 75.3711 393.35 69.2351 389.589C64.3564 386.597 59.4231 383.294 54.9311 379.737C51.3618 376.912 47.9411 374.194 45.0877 370.965C43.5944 369.275 40.9511 367.778 39.7544 366.323C35.5544 361.212 39.9844 351.041 41.7731 345.09C44.3857 336.392 47.8724 327.136 53.0144 319.602C57.7431 312.673 63.0144 308.005 71.4971 306.382C79.3258 304.884 87.1971 304.408 95.2037 303.988C93.8591 298.87 91.9651 295.258 92.4458 289.645C92.8991 284.35 95.5724 279.09 97.6704 274.268C101.57 265.304 105.25 256.531 110.586 248.278C113.518 243.743 116.811 239.438 120.012 235.092C120.528 234.391 123.736 231.185 123.613 230.283C123.491 229.386 120.27 226.654 119.776 226.028C116.463 221.822 114.174 217.294 118.063 212.794C120.092 210.447 126.054 205.708 128.924 208.69C132.028 202.419 137.456 198.143 141.682 192.809C146.95 186.157 151.981 179.404 156.913 172.436C161.824 165.499 165.835 158.046 172.344 152.456C179.598 146.226 186.427 146.764 195.336 149.428C195.845 145.991 196.552 146.448 199.876 145.301C202.392 144.432 204.838 143.401 207.312 142.421C209.941 141.378 212.602 140.786 215.29 139.966C218.87 138.874 219.409 139.23 219.99 134.58C220.695 128.962 218.29 123.02 216.74 117.728C215.974 115.117 215.442 111.866 213.72 110.11C212.162 108.521 209.4 107.798 207.696 106.041C193.015 90.907 192.783 58.5937 208.422 44.5277C211.462 41.7943 213.968 38.1163 217.752 36.2703C221.905 34.243 227.385 32.6037 231.96 31.6483C241.391 29.6803 251.967 30.305 259.422 36.9343C263.099 40.2037 265.341 45.4003 266.594 50.0423C267.792 54.4757 267.534 61.971 262.996 55.1183C260.134 50.7963 257.648 46.3883 252.803 44.2503C248.474 42.3403 243.187 41.309 238.47 41.7143C227.354 42.669 218.346 45.933 210.652 54.1603C202.144 63.257 201.711 77.7803 203.545 89.347C205.161 85.9263 206.256 80.509 210.786 79.8557C214.562 79.311 220.515 84.1323 218.488 88.2823C209.293 85.939 206.604 99.8443 214.555 100.682C216.962 100.935 220.011 96.6497 222.228 97.6477C226.373 99.513 220.818 105.941 219.722 108.058L217.976 109.132C218.549 110.464 219.128 111.794 219.713 113.122C220.425 114.81 221.094 116.516 221.719 118.238C223.234 122.44 224.806 126.772 225.719 131.15C226.647 135.6 227.129 140.798 224.935 144.979C222.524 149.575 220.252 149.01 218.4 144.638C213.55 147.694 208.674 150.954 202.973 152.16C208.952 162.189 216.69 170.811 228.326 173.966C238.188 176.639 250.602 176.542 260.012 172.118C269.777 167.528 275.15 156.8 273.988 146.127C273.611 142.67 271.599 130.664 276.385 139.349C279.01 144.112 279.202 151.839 278.604 157.062C275.742 182.048 250.414 191.395 228.575 185.38C217.372 182.294 209.298 174.034 203.288 164.311C201.886 162.044 200.603 159.704 199.35 157.351C198.85 156.411 198.409 155.098 197.741 154.274C195.123 151.042 197.694 152.843 194.916 152.438C190.614 151.813 183.846 155.107 180.652 157.717C171.985 164.797 167.185 176.124 160.534 185.048C153.453 194.548 144.46 203.004 135.438 210.584L166.052 241.94C168.16 239.606 172.167 234.273 172.728 231.153C173.056 229.324 171.581 223.306 176.118 225.984C179.182 227.794 180.344 235.536 181.298 238.703C182.775 243.595 185.26 248.202 186.867 253.043C189.847 262.026 193.518 270.929 196.571 279.976C197.812 283.654 201.351 288.22 197.951 291.334C192.782 296.066 191.246 286.75 189.877 283.19C187.97 285.84 188.218 290.137 187.236 293.228C186.636 295.116 184.808 298.054 184.869 299.914C184.972 303.094 187.86 304.041 190.462 305.819C195.302 309.126 200.27 312.354 204.704 316.205C206.554 317.812 208.256 319.437 209.606 321.504C210.784 323.308 211.139 327.376 212.442 328.632C214.146 330.274 220.444 329.13 223.77 329.487C229.324 330.084 234.953 332.06 240.345 333.479C249.886 335.99 259.7 339.605 269.692 340.946C279.505 342.264 288.714 341.61 298.495 339.855C303.838 338.896 309.575 337.751 314.451 335.182C320.066 332.223 325.046 327.49 330.291 323.915C332.638 322.315 335.04 320.802 337.44 319.286C340.648 317.259 339.81 317.698 340.018 314.478C340.26 310.75 341.816 303.633 339.327 300.316C338.287 298.931 335.097 297.918 333.595 296.911C331.412 295.444 329.454 293.742 327.114 292.563C324.559 291.276 324.484 292.295 323.298 289.136C322.221 286.269 321.51 283.265 320.522 280.367C315.998 267.112 314.828 253.65 312.954 239.809C312.083 233.38 309.946 224.632 312.366 218.369C315.732 209.66 318.548 221.841 319.258 224.962C322.47 219.46 324.316 213.34 327.658 207.908C329.607 204.74 330.56 203.121 331.658 199.651C332.103 198.246 332.281 197.078 333.221 195.911C335.21 193.442 335.504 194.849 337.571 194.788C344.076 194.598 350.469 194.765 356.98 195.066C360.578 195.233 364.176 195.321 367.8 195.308C369.565 195.301 371.352 195.214 373.116 195.316C374.066 195.306 375.016 195.377 375.954 195.529C377.896 196.436 378.638 195.654 378.178 193.184C379.87 189.646 379.757 184.001 380.356 180.141C380.96 176.256 381.515 172.363 382.021 168.464C382.29 166.379 384.55 158.513 383.35 156.8C382.162 155.102 375.968 155.483 374.135 155.178C361.951 153.153 350.618 148.132 339.222 144.018C333.611 141.994 328.286 139.26 322.904 136.776C320.103 135.483 317.456 132.82 314.503 131.99C310.776 130.943 305.83 132.616 302.116 133.247C295.04 134.447 288.214 135.499 281.034 135.89C278.498 136.028 273.672 136.739 271.384 134.996C266.786 131.494 272.021 129.447 275.026 129.005C288.317 127.05 301.568 125.927 314.96 125.111C315.588 125.073 317.888 124.606 318.654 124.847C320.398 125.398 319.694 126.036 320.74 126.604C322.676 127.656 324.885 128.431 327.342 129.084C334.355 130.946 341.418 134.072 348.455 136.528C361.118 140.946 376.247 147.992 388.911 146.753C392.036 146.448 394.606 146.057 397.874 146.373C401.7 146.745 403.934 148.708 406.874 149.278C410.812 150.042 416.446 149.468 420.592 149.615C424.546 149.755 428.502 149.938 432.457 149.938C428.984 142.954 426.868 136.397 424.916 128.896C423.852 124.806 422.25 121.09 422.943 116.782C423.272 114.749 424.084 112.838 424.97 111.002C426.308 108.228 426.688 108.808 427.162 105.738C427.816 101.512 426.879 97.0563 427.392 92.8177C427.919 88.4677 431.206 84.5903 431.572 80.431C431.768 78.219 430.53 76.413 430.9 74.0263C431.232 71.8917 432.496 69.653 433.631 67.8563C436.275 63.6683 439.495 61.2937 443.963 59.5877C447.554 58.2163 452.138 56.9583 455.768 59.179C459.47 61.4443 459.203 66.0037 460.977 69.3303C464.792 76.4837 473.593 82.8763 480.609 86.5297C487.054 89.8857 493.998 92.0057 500.908 94.1943C505.114 95.5263 509.439 96.4763 513.572 97.9983C516.548 99.0943 521.399 101.752 524.43 100.138C527.07 98.7303 530.15 94.4357 532.763 92.4417C535.822 90.1083 539.9 87.8323 543.75 89.8643C547.6 91.8957 547.283 99.3837 550.278 100.791C551.322 101.282 554.42 99.8443 555.843 100.071C558.14 100.437 559.722 101.859 561.1 103.61C566.244 110.152 567.837 120.528 568.062 128.593C568.174 132.621 568.076 137.631 565.616 141.051C562.747 145.04 557.316 145.139 553.633 147.946C550.686 150.192 548.6 153.862 545.61 156.255C543.768 157.73 543.056 156.597 542.294 158.895C541.798 160.39 542.801 163.306 543.097 164.752C544.928 173.673 548.358 181.902 551.613 190.4C553.146 194.405 554.446 198.41 555.146 202.654C555.606 205.439 555.076 207.874 555.298 210.553C555.456 212.46 556.267 214.108 556.088 216.064C555.71 220.206 553.461 223.864 552.03 227.508C550.4 231.661 552.64 238.854 554.282 243.149C558.218 253.44 563.754 263.836 568.672 273.724C573.502 283.436 577.096 293.78 582.724 303.11C588.19 312.172 594.621 321.044 600.84 329.614C604.3 334.381 607.97 338.916 611.106 343.916C611.791 345.01 616.47 354.076 617.683 353.763C616.195 337.94 617.7 321.483 618.365 305.67C619.197 285.876 616.678 267.946 611.108 249.052C609.806 244.634 608.645 240.114 607.729 235.6C607.088 232.44 605.277 229.842 609.722 231.224C617.081 233.511 623.558 247.404 627.3 253.452C635.68 266.997 642.679 285.059 643.618 300.946C644.54 316.539 643.745 331.459 641.796 346.823C640.834 354.402 639.281 362.852 636.906 370.1C635.685 373.829 634.218 377.691 632.592 381.264C631.905 382.772 630.398 384.476 630.137 386.132C629.725 388.761 631.65 392.308 632.133 394.904C633.708 403.397 634.07 412.2 633.533 420.82C633.246 425.444 632.606 429.578 631.098 433.926C629.176 439.466 630.07 443.697 630.87 449.406C631.726 455.518 632.546 469.408 626.192 472.88C625.743 472.833 625.293 472.786 624.844 472.741C623.708 471.432 622.7 471.51 621.82 472.974C620.177 473.51 618.572 474.891 616.84 475.485C612.824 476.864 608.49 476.948 604.3 477.554C596.102 478.741 587.93 480.836 579.874 481.089C570.335 481.389 560.384 481.015 551.058 479.342C549.13 478.997 546.876 478.082 544.948 477.908C542.332 477.67 540.495 479.41 537.794 479C533.607 478.366 530.962 473.936 530.687 470.305C529.816 458.736 536.234 453.43 546.724 451.376C539.946 441.672 532.142 433.712 530.339 421.249C528.564 408.988 532.414 394.798 539.406 384.974C546.118 375.544 557.572 369.24 569.383 371.632C574.865 372.743 600.727 380.378 595.728 389.039C594.619 385.078 587.801 385.844 584.507 385.272C579.042 384.323 573.578 382.892 568.033 383.186C557.128 383.766 546.588 390.217 541.306 399.982C535.219 411.24 537.997 422.474 545.326 432.086C552.028 440.875 558.936 450.108 567.948 456.454C566.206 459.224 566.836 460.094 563.375 459.598C561 459.257 558.777 457.404 556.375 456.943C551.396 455.987 543.559 460.067 540.482 464.147C538.664 466.558 538.732 467.749 542.084 469.234C544.557 470.329 548.452 469.763 551.108 470C557.717 470.59 564.453 470.787 571.083 470.764C582.56 470.722 593.233 468.881 604.591 467.689C609.624 467.16 614.89 467.769 619.815 465.917C626.486 463.408 624.852 456.04 623.987 450.07C623.13 444.157 624.002 439.572 624.932 433.716C625.334 431.173 626.086 428.236 625.554 425.676C624.922 422.636 623.787 421.29 623.932 417.898C624.447 405.826 622.932 393.114 619.732 381.463C612.784 356.158 595.816 336.187 581.665 314.68C577.668 308.605 573.466 302.849 570.284 296.27C567.27 290.037 565.194 283.446 562.201 277.196C555.604 263.42 549.346 249.23 545.49 234.413C541.121 236.132 536.414 238.662 531.73 239.268C526.423 239.955 520.75 235.67 517.403 231.896C509.771 223.291 508.03 211.62 508.601 200.531C508.77 197.248 508.974 193.94 509.561 190.701C509.944 188.599 512.416 183.511 511.853 181.552C511.25 179.456 507.736 177.634 506.658 175.558C505.283 172.916 505.124 169.514 505.198 166.598C505.266 163.938 506.736 150.907 510.955 156.233C513.372 159.284 509.839 170.788 512.292 172.354C514.498 173.763 517.538 172.041 519.827 175.262C522.299 178.742 520.975 183.033 520.108 186.74C518.317 194.405 516.635 202.682 516.681 210.555C516.721 217.724 518.003 226.786 525.836 229.686C529.794 231.15 532.798 230.143 535.749 227.415C536.426 226.637 537.116 225.87 537.819 225.116C538.465 224.006 539.456 223.868 540.792 224.703C541.78 223.918 543.245 218.491 543.74 217.278C549.807 202.412 540.242 185.342 536.736 170.756C534.591 161.834 532.721 152.884 537.062 144.274C537.765 142.88 539.701 141.668 538.54 139.668C538.233 139.142 535.311 138.895 534.619 138.284C532.364 136.294 532.834 132.584 532.834 129.928C527.62 131.536 526.118 127.479 526.796 122.507C522.906 123.124 520.205 124.313 518.765 119.813C517.488 115.822 519.416 111.753 520.696 108.034C502.7 106.106 483.265 103.634 468.924 91.217C465.388 88.155 462.447 84.301 459.996 80.3083C459.554 79.5863 457.468 74.5037 456.776 74.2383C454.723 73.4497 453 77.4683 451.174 78.4637C449.552 79.3477 447.245 79.835 445.442 80.3737C443.746 80.8803 437.765 80.9823 436.704 81.863C434.052 84.0657 434.262 96.7997 434.241 99.755C434.169 109.934 436.441 120.077 440.643 129.344C444.6 138.072 450.656 150.075 458.571 155.787C460.571 157.231 462.371 157.98 464.906 157.86C466.717 157.776 468.512 156.507 470.398 157.167C475.169 158.836 473.462 162.153 469.794 163.72C459.31 168.205 450.474 158.347 444.412 151.46C442.636 159.632 450.868 169.3 455.224 175.967C458 180.216 460.744 184.468 463.384 188.804C465.302 191.952 469.07 197.767 462.376 195.335C459.147 212.283 450.284 227.105 445.758 243.575C441.112 260.482 437.062 279.786 437.062 297.393C440.6 294.93 442.384 283.706 447.142 292.297C447.657 293.226 447.495 294.764 448.174 295.576C449.113 296.7 450.242 296.388 451.68 297.188C453.96 298.457 455.431 300.986 453.393 303.18C456.018 302.569 458.768 302.88 459.333 305.985C459.651 307.728 457.099 315.8 455.195 316.46C449.39 318.469 442.954 306.881 441.382 303.195C437.756 306.834 433.578 309.634 430.236 303.747C427.746 299.36 429.191 292.724 429.542 287.948C430.25 278.328 431.174 268.945 432.562 259.418C435.165 241.552 441.771 225.664 449.885 209.583C452.118 205.156 454.594 200.626 456.59 196.098C459.599 189.264 454.89 190.877 450.288 191.869C441.27 193.814 431.828 195.322 422.717 196.011C417.961 196.37 411.87 196.584 407.3 197.959C404.087 198.926 404.638 198.258 403.347 201.699C402.77 203.239 402.119 204.878 401.1 206.196C395.909 212.924 382.46 211.798 375.034 211.296C375.484 208.46 375.929 205.621 376.396 202.786C370.678 204.13 363.888 205.065 358 204.996C354.83 204.96 351.458 204.476 348.296 204.214C345.965 204.02 341.545 202.367 339.351 203.01C336.807 203.756 332.96 212.954 331.504 215.92C328.774 221.49 323.893 227.678 322.17 233.542C320.642 238.742 323.76 247.712 324.739 252.888C326.154 260.369 327.444 267.864 329.816 275.118C331.536 280.378 333.518 287.628 338.799 290.251C344.06 292.866 347.842 294.336 353.536 293.804C363.564 292.867 374.233 294.406 384.133 296.356C394.328 298.362 403.663 299.267 413.344 302.844C435.3 310.96 449.282 335.958 441.004 358.86C436.242 372.032 428.398 381.821 416.892 389.97C411.028 394.122 404.101 397.491 397.673 400.691C394.722 402.16 391.82 403.943 388.812 405.248C386.614 406.202 382.836 408.398 380.448 408.639C383.099 409.899 385.444 408.719 388.202 408.328C392.104 407.772 396.088 407.654 400.005 407.17C406.101 406.415 412.106 405.846 418.204 405.089C423.409 404.442 429.282 404.214 434.454 404.958C436.953 405.317 440.714 406.026 442.939 407.23C444.689 408.177 446.294 410.358 448.176 411.439C450.246 402.938 449.278 392.459 449.374 383.724C449.454 376.594 449.772 369.62 450.443 362.523C451.194 354.585 446.338 345.558 444.545 337.783C442.867 330.506 438.396 321.284 440.042 313.689C442.117 304.115 447.548 321.314 448.295 323.774C450.633 331.467 453.347 338.978 455.938 346.582C459.02 355.626 462.124 364.39 466.614 372.866C470.349 379.918 474.642 388.192 482.318 391.632C481.685 381.26 480.982 371.656 476.67 362.094C472.581 353.026 466.346 344.962 463.62 335.245C462.266 330.416 462.066 325.478 462 320.491C461.954 317.136 462.108 312.624 465.706 316.243C468.561 319.112 469.115 328.262 470.364 332.125C470.966 333.984 471.8 335.69 472.464 337.498C472.764 338.312 474.779 342.28 474.779 342.812C476.857 349.082 481.451 355.096 484.679 360.865" fill="#6A327E" fill-opacity="0.99"/>
<path fill-rule="evenodd" clip-rule="evenodd" d="M264.307 132.284C264.505 134.713 265.913 141.008 264.109 142.93C261.718 145.48 260.585 142.2 259.55 139.614C257.389 134.21 256.315 123.745 260.585 119.242C265.045 114.539 273.854 114.412 278.612 109.729C280.522 107.848 280.339 108.24 280.172 105.299C280.077 103.639 279.004 101.432 278.485 99.9389C277.135 96.0603 275.654 92.2282 274.242 88.3722C271.774 89.4969 268.224 92.9662 265.793 90.0589C263.547 87.3696 267.284 82.9642 269.888 82.1789C268.528 79.2069 262.125 79.7562 260.905 75.3922C259.845 71.5989 262.891 73.1056 263.556 71.6122C264.34 69.8536 262.735 67.4769 263.561 65.8569C266.429 60.2323 269.604 70.5742 271.032 72.4202C273.688 75.8536 278.316 76.6036 278.724 81.7969C278.975 84.9942 278.735 86.4809 280.052 89.6209C281.265 92.5116 282.705 95.2836 283.723 98.2582C285.255 102.74 287.616 110.897 284.623 115.237C282.099 118.898 275.97 121.688 271.985 123.254C269.989 124.037 267.222 124.514 265.607 126.04C263.5 128.031 264.155 129.254 264.306 132.284M471.373 267.816L470.008 265.667C466.854 269.036 463.361 270.42 460.174 266.141C456.891 261.736 458.124 255.13 459.401 250.318C460.057 247.842 463.379 238.08 465.507 245.517C465.977 247.158 464.407 250.813 464.123 252.42C463.564 255.572 463.124 258.595 463.517 261.805C467.215 258.496 469.025 250.106 472.777 258.818C474.139 261.977 474.288 267.18 477.911 262.381C479.844 259.818 479.969 255.088 480.874 252.068C487.049 253.545 485.924 262.677 483.863 267.126C480.58 274.211 476.114 271.93 471.373 267.816ZM492.994 108.889C495.191 112.552 491.035 119.252 490.283 123.013C493.963 122.586 503.068 113.711 505.631 115.175C510.966 118.22 499.696 128.842 497.531 130.398C480.225 142.836 483.345 106.856 492.994 108.889ZM471.293 149.684C477.758 147.884 486.477 159.488 482.283 165.234C479.274 169.356 475.557 166.999 474.614 163.37C474.134 161.52 474.56 159.29 473.931 157.226C473.158 154.684 472.121 152.209 471.293 149.684Z" fill="#6A327E" fill-opacity="0.99"/>
<path fill-rule="evenodd" clip-rule="evenodd" d="M474.922 398.015L474.356 392.472C476.81 393.723 481.732 394.958 482.586 397.759C484.19 403.02 476.741 398.812 474.922 398.015ZM546.14 175.172C544.68 173.198 540.135 156.732 544.078 157.109C544.768 163.082 544.91 169.286 546.14 175.172ZM484.68 360.865C481.451 355.096 476.857 349.082 474.779 342.812C479.65 346.755 483.456 354.812 484.68 360.865ZM617.093 347.49L617.683 353.763C614.758 354.518 616.914 348.181 617.093 347.49Z" fill="#6A327E" fill-opacity="0.99"/>
<path fill-rule="evenodd" clip-rule="evenodd" d="M474.785 342.821C473.4 341.314 472.807 339.46 472.465 337.498L474.785 342.821ZM491.53 437.488L491.684 431.911L491.531 437.488M272.785 135.584L276.502 136.045C275.524 136.504 273.22 137.112 272.785 135.584ZM519.855 457.016C521.145 456.822 522.438 456.378 523.705 457.092L519.855 457.016ZM530.426 410.571L530.219 413.985L530.425 410.572M298.973 439.343C297.719 439.975 296.465 440.038 295.215 439.335L298.973 439.343ZM427.325 95.2049L427.377 98.5782C427.359 97.4538 427.341 96.3294 427.325 95.2049ZM302.796 125.927C301.511 126.024 300.227 126.12 298.943 126.218L302.796 125.927ZM568.071 130.26C568.064 129.149 568.057 128.038 568.052 126.928C568.641 128.038 568.653 129.148 568.071 130.26ZM264.306 132.284L264.131 128.745C264.19 129.926 264.247 131.105 264.305 132.285M350.992 466.4C351.727 466.399 352.463 466.398 353.189 466.399L350.992 466.4ZM394.872 146.09C393.774 146.08 392.676 146.07 391.579 146.061C392.682 145.422 393.778 145.605 394.872 146.09ZM248.363 31.1729C247.256 31.1376 246.086 31.7142 245.066 30.8369L248.363 31.1729ZM218.472 139.674C217.411 139.772 216.35 139.869 215.289 139.966L218.472 139.674M313.113 125.254L309.845 125.324C310.926 124.891 312.007 124.484 313.113 125.254ZM491.49 423.318C491.483 422.374 491.477 421.429 491.471 420.486L491.49 423.318ZM617.493 343.212C617.375 344.354 617.257 345.495 617.141 346.637L617.493 343.212ZM476.104 416.812L475.861 413.898C475.941 414.872 476.023 415.842 476.104 416.812ZM109.575 407.882C109.375 408.852 108.669 409.042 107.455 408.454L109.575 407.882ZM516.781 408.314C516.716 407.468 516.652 406.624 516.588 405.781C516.653 406.626 516.717 407.47 516.781 408.314ZM482.469 401.114L482.464 403.6L482.469 401.114M168.427 446.769L165.585 446.724C166.544 446.067 167.489 446.208 168.427 446.769ZM278.747 82.9669L278.7 80.6269C279.187 81.4002 279.343 82.1756 278.747 82.9669ZM203.107 73.0649C203.173 72.2949 203.239 71.5249 203.304 70.7596L203.107 73.0649ZM516.223 342.61C516.191 341.761 516.157 340.912 516.126 340.065L516.223 342.61ZM510.125 386.453C510.102 387.253 510.079 388.053 510.054 388.85C510.077 388.048 510.101 387.25 510.125 386.453ZM401.086 463.642C401.679 463.641 402.273 463.64 402.859 463.64C402.265 463.642 401.675 463.642 401.086 463.642ZM470.542 393.802C464.765 389.337 459.727 382.66 458.555 375.512C461.039 378.319 463.128 381.452 465.613 384.258C466.601 385.371 467.813 386.331 468.76 387.466C470.923 390.055 470.542 390.17 470.542 393.802ZM450.244 363.622C447.471 357.234 445.064 349.486 445.547 342.438C447.46 348.836 451.899 356.874 450.244 363.622ZM92.816 451.596L98.5026 451.934C96.5986 451.959 94.6693 452.42 92.816 451.596ZM399.02 172.36L399.008 168.513C399.011 169.797 399.016 171.079 399.02 172.36M376.104 204.554C376.055 203.651 375.575 203.196 374.661 203.19C376.495 202.2 376.976 202.654 376.104 204.554ZM430.471 275.949C430.542 274.807 430.615 273.665 430.686 272.526C430.614 273.668 430.542 274.809 430.471 275.949ZM424.601 158.196C423.717 158.204 422.832 158.212 421.955 158.218L424.601 158.196ZM609.045 467.21L612.373 467.195C611.267 467.893 610.157 467.875 609.045 467.21ZM542.807 147.523C543.519 148.21 542.583 149.788 541.735 149.244L542.807 147.523ZM242.597 334.374L245.993 334.686L242.597 334.373M342.767 422.511L340.588 422.512H342.768M407.071 176.151C407.027 177.093 406.984 178.034 406.942 178.972C406.986 178.029 407.029 177.09 407.07 176.152M423.221 404.634C424.342 403.838 425.432 404.363 426.526 404.708L423.221 404.634ZM292.214 135.11C291.479 135.08 290.745 135.049 290.011 135.016C290.751 135.046 291.482 135.078 292.214 135.11ZM410.519 316.094C409.911 316.098 409.304 316.102 408.704 316.108C409.314 316.104 409.917 316.099 410.519 316.094ZM357.95 293.723L360.906 293.704C359.924 294.282 358.938 294.174 357.95 293.723ZM408.993 197.975L407.292 197.959C407.864 197.964 408.429 197.97 408.993 197.975ZM240.725 343.074L238.971 343.049L240.725 343.074M127.285 304.567L130.235 304.598C129.246 305.154 128.263 305.168 127.285 304.568M626.902 306.194C626.839 306.942 626.778 307.691 626.718 308.44C626.779 307.689 626.84 306.942 626.902 306.194ZM217.561 329.16C218.554 329.173 219.548 329.188 220.542 329.202C219.538 329.894 218.55 329.458 217.561 329.16ZM116.52 452.426C117.443 451.671 118.381 451.902 119.321 452.386L116.52 452.426ZM285.245 341.814L287.988 341.478L285.245 341.814M406.607 181.844C406.565 182.612 406.523 183.38 406.483 184.142L406.607 181.844ZM182.738 364.824L182.992 362.382C182.907 363.198 182.823 364.012 182.739 364.824M399.268 161.996L399.343 159.602C399.319 160.402 399.293 161.2 399.268 161.996ZM374.34 448.119C374.889 449.73 374.687 453.479 373.129 454.614C369.895 456.972 369.562 452.668 368.92 450.342C367.139 443.892 364.272 436.689 363.541 430.058C363.317 428.024 363.196 424.214 365.887 423.528C368.484 422.866 369.799 426.981 370.695 429.094C373.18 434.958 374.621 441.761 374.34 448.119Z" fill="#6A327E" fill-opacity="0.99"/>
</svg>
